<svg xmlns="http://www.w3.org/2000/svg" width="118.408" height="487.89" viewBox="0 0 118.408 487.89">
  <g id="Group_118" data-name="Group 118" transform="translate(-7076.256 -1614.483)">
    <path id="Path_49" data-name="Path 49" d="M7110.217,1662.08c44.782,194.259-85.135,283.964-82.013,438.9" transform="translate(49.467)" fill="none" stroke="#fff" stroke-linecap="round" stroke-linejoin="round" stroke-width="2.726" fill-rule="evenodd"/>
    <g id="Group_87" data-name="Group 87">
      <path id="Path_50" data-name="Path 50" d="M7129.444,1954.093q30.353-81.174,60.1-162.57c-11.952-6.614-19.215-9.036-32.039-12.206-19.291,54.46-38.983,104.781-58.767,161.031C7111.073,1948.415,7120.213,1951.142,7129.444,1954.093Z" fill="#c0212e" stroke="#fff" stroke-linecap="round" stroke-linejoin="round" stroke-width="3" fill-rule="evenodd"/>
      <g id="Group_86" data-name="Group 86">
        <path id="Path_51" data-name="Path 51" d="M7158.64,1802.37c-2.772-.9-4.392-1.955-7.083-3.093" fill="#c0212e" stroke="#fff" stroke-linecap="round" stroke-linejoin="round" stroke-width="3" fill-rule="evenodd"/>
        <path id="Path_52" data-name="Path 52" d="M7155.825,1810.825c-2.772-.9-4.392-1.954-7.083-3.093" fill="#c0212e" stroke="#fff" stroke-linecap="round" stroke-linejoin="round" stroke-width="3" fill-rule="evenodd"/>
        <path id="Path_53" data-name="Path 53" d="M7152.549,1819.213c-2.771-.9-4.391-1.955-7.083-3.093" fill="#c0212e" stroke="#fff" stroke-linecap="round" stroke-linejoin="round" stroke-width="3" fill-rule="evenodd"/>
        <path id="Path_54" data-name="Path 54" d="M7154.187,1830.52c-4.506-1.54-7.248-3.012-11.678-4.793" fill="#c0212e" stroke="#fff" stroke-linecap="round" stroke-linejoin="round" stroke-width="3" fill-rule="evenodd"/>
        <path id="Path_55" data-name="Path 55" d="M7145.818,1837.791c-2.772-.9-4.392-1.955-7.083-3.093" fill="#c0212e" stroke="#fff" stroke-linecap="round" stroke-linejoin="round" stroke-width="3" fill-rule="evenodd"/>
        <path id="Path_56" data-name="Path 56" d="M7142.276,1847.089c-2.772-.9-4.392-1.955-7.083-3.093" fill="#c0212e" stroke="#fff" stroke-linecap="round" stroke-linejoin="round" stroke-width="3" fill-rule="evenodd"/>
        <path id="Path_57" data-name="Path 57" d="M7138.919,1855.26c-2.772-.9-4.392-1.955-7.083-3.093" fill="#c0212e" stroke="#fff" stroke-linecap="round" stroke-linejoin="round" stroke-width="3" fill-rule="evenodd"/>
        <path id="Path_58" data-name="Path 58" d="M7141.764,1865.435c-4.506-1.539-7.248-3.011-11.677-4.792" fill="#c0212e" stroke="#fff" stroke-linecap="round" stroke-linejoin="round" stroke-width="3" fill-rule="evenodd"/>
        <path id="Path_59" data-name="Path 59" d="M7132.914,1871.913c-2.772-.9-4.393-1.955-7.084-3.093" fill="#c0212e" stroke="#fff" stroke-linecap="round" stroke-linejoin="round" stroke-width="3" fill-rule="evenodd"/>
        <path id="Path_60" data-name="Path 60" d="M7130.1,1880.369c-2.772-.9-4.392-1.955-7.083-3.093" fill="#c0212e" stroke="#fff" stroke-linecap="round" stroke-linejoin="round" stroke-width="3" fill-rule="evenodd"/>
        <path id="Path_61" data-name="Path 61" d="M7126.823,1888.756c-2.772-.9-4.392-1.955-7.083-3.093" fill="#c0212e" stroke="#fff" stroke-linecap="round" stroke-linejoin="round" stroke-width="3" fill-rule="evenodd"/>
        <path id="Path_62" data-name="Path 62" d="M7128.46,1900.063c-4.506-1.54-7.248-3.012-11.678-4.793" fill="#c0212e" stroke="#fff" stroke-linecap="round" stroke-linejoin="round" stroke-width="3" fill-rule="evenodd"/>
        <path id="Path_63" data-name="Path 63" d="M7120.091,1907.334c-2.772-.9-4.392-1.955-7.083-3.093" fill="#c0212e" stroke="#fff" stroke-linecap="round" stroke-linejoin="round" stroke-width="3" fill-rule="evenodd"/>
        <path id="Path_64" data-name="Path 64" d="M7116.549,1916.632c-2.772-.9-4.392-1.955-7.083-3.093" fill="#c0212e" stroke="#fff" stroke-linecap="round" stroke-linejoin="round" stroke-width="3" fill-rule="evenodd"/>
        <path id="Path_65" data-name="Path 65" d="M7113.192,1924.8c-2.772-.9-4.392-1.955-7.083-3.093" fill="#c0212e" stroke="#fff" stroke-linecap="round" stroke-linejoin="round" stroke-width="3" fill-rule="evenodd"/>
        <path id="Path_66" data-name="Path 66" d="M7116.037,1934.979c-4.506-1.54-7.248-3.012-11.677-4.793" fill="#c0212e" stroke="#fff" stroke-linecap="round" stroke-linejoin="round" stroke-width="3" fill-rule="evenodd"/>
        <path id="Path_67" data-name="Path 67" d="M7166.675,1796.761c-4.5-1.54-7.248-3.012-11.677-4.793" fill="#c0212e" stroke="#fff" stroke-linecap="round" stroke-linejoin="round" stroke-width="3" fill-rule="evenodd"/>
      </g>
    </g>
    <g id="Group_88" data-name="Group 88">
      <path id="Path_68" data-name="Path 68" d="M7184.37,1686.632c3.977,4.391,6.62,7.312,6.99,7.728,2.577,2.9,2.37,5.77-.265,9.226-2.435,3.195-6.835,7.316-9.458,8.742-2.477,1.347-4.372,1.729-7.215-1.11-.666-.665-3.556-3.788-7.728-8.352" fill="#c0212e" stroke="#fff" stroke-linecap="round" stroke-linejoin="round" stroke-width="3" fill-rule="evenodd"/>
      <path id="Path_69" data-name="Path 69" d="M7184.37,1686.632c-15.358-16.962-50.612-55.879-51.7-57.321l-17.152,15.4c3.565,5.558,35.933,41.482,51.178,58.16" fill="#c0212e" stroke="#fff" stroke-linecap="round" stroke-linejoin="round" stroke-width="3" fill-rule="evenodd"/>
      <path id="Path_70" data-name="Path 70" d="M7115.516,1644.706c-1.794-2.8-7.524-24.459-9.075-27.4s1.994-.247,5.376,1.074,19.479,9.117,20.851,10.932" fill="#c0212e" stroke="#fff" stroke-linecap="round" stroke-linejoin="round" stroke-width="3" fill-rule="evenodd"/>
      <path id="Path_71" data-name="Path 71" d="M7115.364,1644.524c3.242-.418,16.545-10.931,17.173-15.1" fill="#c0212e" stroke="#fff" stroke-linecap="round" stroke-linejoin="round" stroke-width="3" fill-rule="evenodd"/>
      <path id="Path_72" data-name="Path 72" d="M7111.5,1630.962a18.932,18.932,0,0,0,8.055-8.147" fill="#c0212e" stroke="#fff" stroke-linecap="round" stroke-linejoin="round" stroke-width="3" fill-rule="evenodd"/>
      <path id="Path_73" data-name="Path 73" d="M7167.637,1702.884c4.671-.581,16.409-13.471,16.93-15.913" fill="#c0212e" stroke="#fff" stroke-linecap="round" stroke-linejoin="round" stroke-width="3" fill-rule="evenodd"/>
    </g>
  </g>
</svg>
