<svg xmlns="http://www.w3.org/2000/svg" width="154.057" height="300" viewBox="0 0 154.057 489.247">
  <g id="Group_84" data-name="Group 84" transform="translate(-2633.06 -32.929)">
    <g id="Group_83" data-name="Group 83" transform="translate(2634.56 141.892)">
      <path id="Path_37" data-name="Path 37" d="M2659.821,166.235c20.306.427,38.177,6.673,54.44,16.8-7.938,24.719-10.371,37.914-18.249,61.9-16.968-12.824-35.493-15.261-54.44-16.8C2648.65,201.417,2653.024,190.857,2659.821,166.235Z" transform="translate(-2641.562 -166.235)" fill="#c0212e" stroke="#fff" stroke-linecap="round" stroke-linejoin="round" stroke-width="3" fill-rule="evenodd"/>
      <path id="Path_38" data-name="Path 38" d="M2708.553,248.9c21.241-1.084,37.939,7.3,54.48,16.669,9.144-26.079,11.454-37.273,19.656-61.463-17.042-11.049-35.338-15.915-54.48-16.67" transform="translate(-2653.92 -170.146)" fill="#c0212e" stroke="#fff" stroke-linecap="round" stroke-linejoin="round" stroke-width="3" fill-rule="evenodd"/>
      <path id="Path_39" data-name="Path 39" d="M2696.013,258.893c-16.972-9.536-35.5-8.943-54.453-7.427.922-3.459,1.8-6.649,2.641-9.635" transform="translate(-2641.56 -180.182)" fill="#c0212e" stroke="#fff" stroke-linecap="round" stroke-linejoin="round" stroke-width="3" fill-rule="evenodd"/>
      <path id="Path_40" data-name="Path 40" d="M2708.332,262.753c19.4,1.639,34.4,12.534,49.229,24.431,1.178-3.38,2.245-6.511,3.225-9.456" transform="translate(-2653.879 -184.043)" fill="#c0212e" stroke="#fff" stroke-linecap="round" stroke-linejoin="round" stroke-width="3" fill-rule="evenodd"/>
      <path id="Path_41" data-name="Path 41" d="M2670.624,183.325c10.06-5.907,12.706,8.617,17.925,5.507s14.736-4.471,18.507,2.687" transform="translate(-2646.922 -169.125)" fill="#c0212e" stroke="#fff" stroke-linecap="round" stroke-linejoin="round" stroke-width="3" fill-rule="evenodd"/>
      <path id="Path_42" data-name="Path 42" d="M2666.653,199.069c3.738-.136,13.186,7.052,16.644,5.972s16.232-1.011,16.847,3.463" transform="translate(-2646.19 -172.292)" fill="#c0212e" stroke="#fff" stroke-linecap="round" stroke-linejoin="round" stroke-width="3" fill-rule="evenodd"/>
      <path id="Path_43" data-name="Path 43" d="M2661.389,218.468c2.916,3.467,13.3,2.347,17.219,6.563s12.8-2.481,15.013,4.2" transform="translate(-2645.218 -175.872)" fill="#c0212e" stroke="#fff" stroke-linecap="round" stroke-linejoin="round" stroke-width="3" fill-rule="evenodd"/>
      <path id="Path_44" data-name="Path 44" d="M2728.333,239.608c5.007,10.536,13.513,4.754,18.541,9.684a15.679,15.679,0,0,0,16.207,3.993" transform="translate(-2657.57 -179.772)" fill="#c0212e" stroke="#fff" stroke-linecap="round" stroke-linejoin="round" stroke-width="3" fill-rule="evenodd"/>
      <path id="Path_45" data-name="Path 45" d="M2733.706,224.617c3.016,2.212,14.87,1.569,17.126,4.4s12.863,9.952,15.884,6.595" transform="translate(-2658.561 -177.006)" fill="#c0212e" stroke="#fff" stroke-linecap="round" stroke-linejoin="round" stroke-width="3" fill-rule="evenodd"/>
      <path id="Path_46" data-name="Path 46" d="M2740.243,205.426c7.521-3.488,12.323,5.527,17.933,4.238s9.2,9.24,14.78,4.956" transform="translate(-2659.767 -173.317)" fill="#c0212e" stroke="#fff" stroke-linecap="round" stroke-linejoin="round" stroke-width="3" fill-rule="evenodd"/>
    </g>
  </g>
</svg>
